Genre:Drama | Fantasy | Horror
Language:English
IMDb:
 
http://www.imdb.com/title/tt1228987/

Source:DVDRip KOR/Audio:T0XiC-iNK Thx



Format : MPEG-4
Format profile : Base Media
Codec ID : isom
File size : 923 MiB
Duration : 1h 55mn
Overall bit rate : 1 116 Kbps


Video
Codec ID : avc1
Codec ID/Info : Advanced Video Coding
Duration : 1h 55mn
Bit rate mode : Variable
Bit rate : 950 Kbps
Width : 720 pixels
Height : 304 pixels
Display aspect ratio : 2.35:1
Frame rate mode : Constant
Frame rate : 23.976 fps
Original frame rate : 23.000 fps
Color space : YUV
Chroma subsampling : 4:2:0
Bit depth : 8 bits
Scan type : Progressive
Bits/(Pixel*Frame) : 0.181
Stream size : 786 MiB (85%)


Audio
ID : 1
Format : AAC
Format/Info : Advanced Audio Codec
Format version : Version 4
Format profile : LC
Codec ID : 40
Duration : 1h 55mn
Bit rate mode : Constant
Bit rate : 160 Kbps
Channel(s) : 2 channels
Channel positions : Front: L R
Sampling rate : 48.0 KHz
Stream size : 132 MiB (14%)
Language : English



Plot:
A bullied young boy befriends a young female vampire who lives in secrecy with her guardian

 
http://shareimage.org/images/vzng2rlmsvj2x9h406c.png
 
http://shareimage.org/images/qwta7heh497xqrgv6sj.png
 
http://shareimage.org/images/2pf6dz71dfcbzf2yzvd7.png
 
http://shareimage.org/images/wz934anwgo1gpg88zsg.png
 
http://shareimage.org/images/wz934anwgo1gpg88zsg.png
 
http://shareimage.org/images/ns32vw0rc25jj5lbbozh.png